# xmcd
#
# Track frame offsets:
#	150
#	25805
#	53760
#	178402
#	214705
#	225550
#	307520
#
# Disc length: 4216 seconds
#
# Revision: 10
# Processed by: cddbd v1.5.2PL0 Copyright (c) Steve Scherf et al.
# Submitted via: EZCDAudioConverter 1.3.4.1
#
DISCID=50107607
DTITLE=Various Artist - Closed On Account Of Rabies 2/2
DYEAR=1997
DGENRE=
TTITLE0=Ed Sanders - The Haunted Palace 
TTITLE1=Jeff Buckley - Ulalume
TTITLE2=Dr. John - Berenice 
TTITLE3=Deborah Harry and The Jazz Passengers - The City And The Sea 
TTITLE4=Marianne Faithfull - Annabel Lee 
TTITLE5=Gabriel Byrne - The Masque Of The Red Death 
TTITLE6=Abel Ferrara - The Raven [Excerpt]
EXTD=
EXTT0=
EXTT1=
EXTT2=
EXTT3=
EXTT4=
EXTT5=
EXTT6=
PLAYORDER=
